<svg id="visual" viewBox="0 0 900 600" width="900" height="600" xmlns="http://www.w3.org/2000/svg" xmlns:xlink="http://www.w3.org/1999/xlink" version="1.1"><path d="M0 127L21.5 133.5C43 140 86 153 128.8 153.3C171.7 153.7 214.3 141.3 257.2 137.2C300 133 343 137 385.8 136.7C428.7 136.3 471.3 131.7 514.2 130.8C557 130 600 133 642.8 140.5C685.7 148 728.3 160 771.2 160.2C814 160.3 857 148.7 878.5 142.8L900 137L900 0L878.5 0C857 0 814 0 771.2 0C728.3 0 685.7 0 642.8 0C600 0 557 0 514.2 0C471.3 0 428.7 0 385.8 0C343 0 300 0 257.2 0C214.3 0 171.7 0 128.8 0C86 0 43 0 21.5 0L0 0Z" fill="#f5f5f5"></path><path d="M0 116L21.5 114.5C43 113 86 110 128.8 111C171.7 112 214.3 117 257.2 115.5C300 114 343 106 385.8 104.5C428.7 103 471.3 108 514.2 109.3C557 110.7 600 108.3 642.8 108C685.7 107.7 728.3 109.3 771.2 112.5C814 115.7 857 120.3 878.5 122.7L900 125L900 0L878.5 0C857 0 814 0 771.2 0C728.3 0 685.7 0 642.8 0C600 0 557 0 514.2 0C471.3 0 428.7 0 385.8 0C343 0 300 0 257.2 0C214.3 0 171.7 0 128.8 0C86 0 43 0 21.5 0L0 0Z" fill="#f5f5f5"></path><path d="M0 116L21.5 110C43 104 86 92 128.8 93.2C171.7 94.3 214.3 108.7 257.2 116.7C300 124.7 343 126.3 385.8 120.2C428.7 114 471.3 100 514.2 94.5C557 89 600 92 642.8 93.3C685.7 94.7 728.3 94.3 771.2 97.7C814 101 857 108 878.5 111.5L900 115L900 0L878.5 0C857 0 814 0 771.2 0C728.3 0 685.7 0 642.8 0C600 0 557 0 514.2 0C471.3 0 428.7 0 385.8 0C343 0 300 0 257.2 0C214.3 0 171.7 0 128.8 0C86 0 43 0 21.5 0L0 0Z" fill="#f5f5f5"></path><path d="M0 47L21.5 50.5C43 54 86 61 128.8 67C171.7 73 214.3 78 257.2 74.7C300 71.3 343 59.7 385.8 54.3C428.7 49 471.3 50 514.2 56.5C557 63 600 75 642.8 77.3C685.7 79.7 728.3 72.3 771.2 70C814 67.7 857 70.3 878.5 71.7L900 73L900 0L878.5 0C857 0 814 0 771.2 0C728.3 0 685.7 0 642.8 0C600 0 557 0 514.2 0C471.3 0 428.7 0 385.8 0C343 0 300 0 257.2 0C214.3 0 171.7 0 128.8 0C86 0 43 0 21.5 0L0 0Z" fill="#f5f5f5"></path><path d="M0 43L21.5 44C43 45 86 47 128.8 49.2C171.7 51.3 214.3 53.7 257.2 52C300 50.3 343 44.7 385.8 40C428.7 35.3 471.3 31.7 514.2 30.7C557 29.7 600 31.3 642.8 35.7C685.7 40 728.3 47 771.2 50.2C814 53.3 857 52.7 878.5 52.3L900 52L900 0L878.5 0C857 0 814 0 771.2 0C728.3 0 685.7 0 642.8 0C600 0 557 0 514.2 0C471.3 0 428.7 0 385.8 0C343 0 300 0 257.2 0C214.3 0 171.7 0 128.8 0C86 0 43 0 21.5 0L0 0Z" fill="#f5f5f5"></path></svg>